<svg width="215" height="25" viewBox="0 0 215 25" fill="none" xmlns="http://www.w3.org/2000/svg">
<rect x="0.5" y="1.12354" width="34" height="23" rx="3.5" fill="white" stroke="#D9D9D9"/>
<path fill-rule="evenodd" clip-rule="evenodd" d="M10.6253 16.8818H8.50494L6.91495 10.8159C6.83949 10.5369 6.67925 10.2902 6.44354 10.1739C5.85531 9.88177 5.20712 9.64924 4.5 9.53197V9.29843H7.91567C8.38708 9.29843 8.74064 9.64924 8.79957 10.0567L9.62454 14.4322L11.7438 9.29843H13.8052L10.6253 16.8818ZM14.9838 16.8818H12.9813L14.6302 9.29843H16.6327L14.9838 16.8818ZM19.2234 11.3992C19.2823 10.9908 19.6359 10.7573 20.0483 10.7573C20.6965 10.6986 21.4026 10.8159 21.9919 11.1071L22.3454 9.47434C21.7562 9.24081 21.108 9.12354 20.5198 9.12354C18.5762 9.12354 17.162 10.1739 17.162 11.6318C17.162 12.7408 18.1637 13.3231 18.8708 13.674C19.6359 14.0237 19.9305 14.2573 19.8716 14.6071C19.8716 15.1318 19.2823 15.3653 18.6941 15.3653C17.9869 15.3653 17.2798 15.1904 16.6327 14.8982L16.2791 16.532C16.9862 16.8232 17.7512 16.9404 18.4584 16.9404C20.6376 16.998 21.9919 15.9487 21.9919 14.3735C21.9919 12.39 19.2234 12.2737 19.2234 11.3992ZM29 16.8818L27.41 9.29843H25.7022C25.3486 9.29843 24.9951 9.53197 24.8772 9.88177L21.9329 16.8818H23.9943L24.4058 15.7737H26.9386L27.1743 16.8818H29ZM25.9968 11.3406L26.585 14.1987H24.9361L25.9968 11.3406Z" fill="#172B85"/>
<rect x="45.5" y="1.12354" width="34" height="23" rx="3.5" fill="#1F72CD" stroke="#D9D9D9"/>
<path fill-rule="evenodd" clip-rule="evenodd" d="M51.6811 9.12354L48.5 16.3703H52.3082L52.7803 15.2148H53.8595L54.3316 16.3703H58.5234V15.4884L58.8969 16.3703H61.0652L61.4387 15.4698V16.3703H70.1566L71.2166 15.2449L72.2092 16.3703L76.6868 16.3796L73.4957 12.7671L76.6868 9.12354H72.2786L71.2467 10.2282L70.2854 9.12354H60.8016L59.9872 10.994L59.1537 9.12354H55.3534V9.97539L54.9307 9.12354H51.6811ZM64.6994 10.1526H69.7055L71.2367 11.8552L72.8172 10.1526H74.3484L72.0219 12.7661L74.3484 15.3495H72.7477L71.2166 13.6272L69.628 15.3495H64.6994V10.1526ZM65.9356 12.1785V11.2292V11.2283H69.0593L70.4223 12.7464L68.9989 14.2729H65.9356V13.2365H68.6667V12.1785H65.9356ZM52.418 10.1526H54.2743L56.3843 15.0666V10.1526H58.4178L60.0476 13.6759L61.5496 10.1526H63.573V15.3526H62.3418L62.3317 11.2779L60.5368 15.3526H59.4355L57.6305 11.2779V15.3526H55.0977L54.6176 14.1868H52.0234L51.5442 15.3516H50.1872L52.418 10.1526ZM52.4663 13.1091L53.321 11.0324L54.1747 13.1091H52.4663Z" fill="white"/>
<rect x="90.5" y="1.12354" width="34" height="23" rx="3.5" fill="white" stroke="#D9D9D9"/>
<path d="M105 23.6235L124 17.8735V20.6235C124 22.2804 122.657 23.6235 121 23.6235H105Z" fill="#FD6020"/>
<path d="M105.185 9.7346C105.55 9.7346 105.969 9.78824 106.282 10.0032V11.0774C106.021 10.7551 105.603 10.5403 105.185 10.5403C104.348 10.594 103.669 11.3467 103.722 12.2063V12.3137C103.722 13.1731 104.401 13.8176 105.237 13.8176C105.655 13.8175 106.021 13.6027 106.282 13.2805V14.3547C105.916 14.5158 105.551 14.6232 105.133 14.6233C103.826 14.6233 102.78 13.4955 102.78 12.1526C102.78 10.7557 103.826 9.62719 105.185 9.7346ZM113.391 12.9582L114.645 9.7346H115.585L113.651 14.6233H113.181L111.247 9.7346H112.188L113.391 12.9582ZM101.004 9.62717C101.474 9.62731 101.945 9.84202 102.311 10.1643L101.84 10.8088C101.631 10.594 101.37 10.433 101.108 10.4328C100.795 10.3791 100.533 10.6476 100.48 10.9699C100.48 11.2385 100.638 11.3459 101.16 11.5608C102.205 11.9906 102.467 12.3135 102.52 12.9582V13.1194C102.467 13.9789 101.787 14.6233 100.951 14.5696C100.324 14.5695 99.6964 14.2475 99.3828 13.6565L99.958 13.0657C100.115 13.4417 100.481 13.7102 100.899 13.7102H100.951C101.265 13.7102 101.578 13.388 101.578 13.0119C101.578 12.7972 101.474 12.636 101.317 12.5285C101.108 12.4211 100.899 12.3137 100.689 12.26C99.8534 11.9914 99.5928 11.6146 99.5928 10.9699V10.9162C99.6451 10.1642 100.272 9.57345 101.004 9.62717ZM95.5684 9.7346C96.8225 9.78855 97.815 10.8633 97.7627 12.1526C97.7626 12.8508 97.4492 13.4953 96.9268 13.9787C96.4564 14.3548 95.8815 14.5696 95.3066 14.5158H94V9.7346H95.5684ZM99.0176 14.5158H98.1289V9.7346H99.0176V14.5158ZM118.512 10.5403H116.892V11.6145H118.46V12.4211H116.892V13.7102H118.512V14.5158H116.004V9.7346H118.512V10.5403ZM120.394 9.7346C121.439 9.7346 122.013 10.218 122.014 11.1311C122.066 11.8294 121.596 12.421 120.969 12.5285L122.38 14.5158H121.282L120.08 12.5823H119.976V14.5158H119.087V9.7346H120.394ZM95.1494 10.5403H94.8887V13.7102H95.1494C95.5674 13.7639 96.038 13.6027 96.3516 13.3342C96.6651 13.0119 96.8222 12.5822 96.8223 12.0989C96.8223 11.6691 96.6651 11.2386 96.3516 10.9162C96.038 10.6478 95.5674 10.4866 95.1494 10.5403ZM119.976 11.9377H120.236C120.811 11.9377 121.073 11.6682 121.073 11.1848C121.073 10.7552 120.811 10.4865 120.236 10.4865H119.976V11.9377Z" fill="black"/>
<path fill-rule="evenodd" clip-rule="evenodd" d="M108.948 9.62354C107.642 9.62354 106.544 10.6981 106.544 12.095C106.544 13.4381 107.589 14.5664 108.948 14.6201C110.307 14.6739 111.352 13.5456 111.405 12.1487C111.352 10.7518 110.307 9.62354 108.948 9.62354V9.62354Z" fill="#FD6020"/>
<rect x="135.5" y="1.12354" width="34" height="23" rx="3.5" fill="white" stroke="#D9D9D9"/>
<path d="M157.176 5.62354C160.944 5.62354 164 8.71444 164 12.5269C164 16.3391 160.944 19.4292 157.176 19.4292C155.486 19.4291 153.942 18.8067 152.75 17.7778C151.558 18.8067 150.014 19.4291 148.324 19.4292C144.556 19.4292 141.5 16.3391 141.5 12.5269C141.5 8.71444 144.556 5.62354 148.324 5.62354C150.013 5.62364 151.558 6.24539 152.75 7.27393C153.942 6.24539 155.487 5.62365 157.176 5.62354Z" fill="#ED0006"/>
<path d="M157.176 5.62354C160.944 5.62354 164 8.71444 164 12.5269C164 16.3391 160.944 19.4292 157.176 19.4292C155.486 19.4291 153.942 18.8067 152.75 17.7778C154.216 16.5118 155.147 14.6299 155.147 12.5269C155.147 10.4234 154.217 8.54006 152.75 7.27393C153.942 6.24539 155.487 5.62365 157.176 5.62354Z" fill="#F9A000"/>
<path d="M152.75 7.27466C154.217 8.54078 155.147 10.4233 155.147 12.5266C155.147 14.6297 154.216 16.5115 152.75 17.7776C151.284 16.5115 150.353 14.6297 150.353 12.5266C150.353 10.4233 151.283 8.54078 152.75 7.27466Z" fill="#FF5E00"/>
<rect x="180.5" y="1.12354" width="34" height="23" rx="3.5" fill="white" stroke="#D9D9D9"/>
<path d="M202.503 9.56348C203.742 9.56356 204.911 10.6804 204.918 12.7295C204.918 14.9692 203.764 15.9871 202.496 15.9873C201.873 15.9873 201.497 15.7257 201.242 15.542L201.234 17.541L199.464 17.916V9.67676H201.022L201.114 10.1152C201.362 9.88912 201.809 9.56348 202.503 9.56348ZM187.395 9.56348C187.982 9.56352 188.563 9.65568 189.15 9.88867V11.5498C188.612 11.2602 187.933 11.0977 187.395 11.0977C187.019 11.0977 186.792 11.2032 186.792 11.4785C186.792 12.2699 189.491 11.8958 189.498 14.001C189.498 15.2658 188.485 15.9941 187.012 15.9941C186.403 15.9941 185.737 15.8734 185.078 15.5908V13.9092C185.673 14.2342 186.424 14.4746 187.012 14.4746C187.408 14.4746 187.691 14.3688 187.691 14.0439C187.691 13.2031 185 13.5137 185 11.5635C185 10.3129 185.957 9.56348 187.395 9.56348ZM191.573 9.68359H192.919V11.1895H191.573V13.6973C191.573 14.743 192.692 14.418 192.919 14.3262V15.7607C192.685 15.8879 192.26 15.9941 191.68 15.9941C190.631 15.9941 189.845 15.2235 189.845 14.1777L189.852 8.51855L191.58 8.15039L191.573 9.68359ZM207.942 9.56348C209.621 9.56348 210.5 10.9911 210.5 12.7998C210.5 12.9692 210.485 13.3363 210.485 13.4287H207.022C207.1 14.2625 207.709 14.5029 208.396 14.5029C209.098 14.5029 209.65 14.3545 210.132 14.1143V15.5273C209.65 15.7958 209.013 15.9872 208.17 15.9873C206.442 15.9873 205.237 14.9129 205.237 12.7861C205.237 10.9915 206.257 9.56375 207.942 9.56348ZM195.122 10.207C195.54 9.4439 196.369 9.5988 196.596 9.68359V11.3096C196.376 11.2319 195.668 11.1328 195.25 11.6768V15.8672H193.479V9.68359H195.009L195.122 10.207ZM198.806 15.8672H197.027V9.68359H198.806V15.8672ZM202.078 11.1328C201.674 11.1328 201.419 11.2736 201.234 11.4785L201.242 14.1006C201.412 14.2842 201.66 14.4326 202.078 14.4326C202.73 14.4324 203.169 13.7258 203.169 12.7793C203.169 11.8538 202.723 11.1331 202.078 11.1328ZM207.936 10.998C207.489 10.9982 207.001 11.3306 207.001 12.1289H208.828C208.828 11.3304 208.368 10.998 207.936 10.998ZM198.806 8.76562L197.027 9.14746V7.70508L198.806 7.33105V8.76562Z" fill="#6461FC"/>
</svg>
